<svg id="Calque_1" data-name="Calque 1" xmlns="http://www.w3.org/2000/svg" xmlns:xlink="http://www.w3.org/1999/xlink" viewBox="0 0 688 476"><defs><style>.cls-1{fill:#3ab180;}.cls-2{fill:#054128;}.cls-10,.cls-11,.cls-12,.cls-18,.cls-19,.cls-20,.cls-21,.cls-22,.cls-23,.cls-24,.cls-25,.cls-26,.cls-27,.cls-28,.cls-3,.cls-39,.cls-4{fill:none;}.cls-10,.cls-11,.cls-12,.cls-39,.cls-4{stroke:#84c1cf;}.cls-10,.cls-11,.cls-12,.cls-18,.cls-19,.cls-20,.cls-21,.cls-22,.cls-23,.cls-24,.cls-26,.cls-27,.cls-28,.cls-39,.cls-4{stroke-linecap:round;stroke-linejoin:round;}.cls-4{stroke-width:7.64px;}.cls-11,.cls-15,.cls-4{opacity:0.5;}.cls-10,.cls-11,.cls-12,.cls-13,.cls-15,.cls-16,.cls-17,.cls-19,.cls-20,.cls-21,.cls-22,.cls-23,.cls-24,.cls-25,.cls-27,.cls-28,.cls-39,.cls-4,.cls-51{isolation:isolate;}.cls-5{fill:#72a6b2;}.cls-6{fill:url(#Dégradé_sans_nom_46);}.cls-7{mask:url(#mask);}.cls-8{fill:#334c50;}.cls-15,.cls-16,.cls-17,.cls-9{fill:#2bf9e4;}.cls-10,.cls-11,.cls-12{stroke-width:2.45px;}.cls-10,.cls-29{opacity:0.6;}.cls-12,.cls-22,.cls-27,.cls-28{opacity:0.25;}.cls-13{fill:#111440;opacity:0.3;}.cls-14{fill:url(#Dégradé_sans_nom_4);}.cls-16,.cls-21,.cls-25{opacity:0.2;}.cls-17,.cls-19,.cls-20,.cls-24,.cls-39{opacity:0.1;}.cls-18,.cls-19,.cls-20,.cls-21,.cls-22,.cls-23,.cls-26,.cls-27{stroke-width:2.23px;}.cls-18{stroke:url(#Dégradé_sans_nom_7);}.cls-19{stroke:url(#Dégradé_sans_nom_8);}.cls-20{stroke:url(#Dégradé_sans_nom_9);}.cls-21{stroke:url(#Dégradé_sans_nom_10);}.cls-22{stroke:url(#Dégradé_sans_nom_11);}.cls-23,.cls-34{opacity:0.75;}.cls-23{stroke:url(#Dégradé_sans_nom_12);}.cls-24{stroke:#096c43;}.cls-24,.cls-39{stroke-width:1.98px;}.cls-25{stroke:#a557cf;stroke-miterlimit:10;stroke-width:1.68px;}.cls-26{stroke:url(#Dégradé_sans_nom_82);}.cls-27{stroke:url(#Dégradé_sans_nom_93);}.cls-28{stroke-width:2.23px;stroke:url(#Dégradé_sans_nom_95);}.cls-30,.cls-46{fill:#fdffff;}.cls-30,.cls-31,.cls-32,.cls-35,.cls-36,.cls-37,.cls-38,.cls-41,.cls-42{fill-rule:evenodd;}.cls-31{fill:url(#Dégradé_sans_nom_128);stroke:url(#Dégradé_sans_nom_100);}.cls-32,.cls-33{fill:#383e3e;}.cls-35{fill:url(#Dégradé_sans_nom_18);}.cls-36{fill:#a2a5a5;}.cls-37{fill:url(#Violet);}.cls-38{fill:url(#Dégradé_sans_nom_69);}.cls-40{opacity:0.8;}.cls-41{fill:url(#Dégradé_sans_nom_91);}.cls-42{fill:#1d1d1b;}.cls-43{opacity:0.9;}.cls-44{fill:url(#Dégradé_sans_nom_25);}.cls-45{fill:url(#Dégradé_sans_nom_125);}.cls-47{fill:url(#Dégradé_sans_nom_121);}.cls-48{fill:url(#Dégradé_sans_nom_44);}.cls-49{mask:url(#mask-2);}.cls-50{fill:#85c2cf;}.cls-52{clip-path:url(#clip-path);}.cls-53{fill:#383e3f;}</style><linearGradient id="Dégradé_sans_nom_46" x1="623.02" y1="349.28" x2="687.84" y2="349.28" gradientTransform="matrix(1, 0, 0, -1, 0, 475.99)" gradientUnits="userSpaceOnUse"><stop offset="0" stop-color="#85c2cf"/><stop offset="1" stop-color="#537980"/></linearGradient><mask id="mask" x="637.29" y="119.03" width="36.25" height="21.52" maskUnits="userSpaceOnUse"><g id="mask0"><path class="cls-1" d="M673.55,128.7l-15.38,8.87a5.53,5.53,0,0,1-5,.21l-15.87-9.16,15.38-8.88a5.54,5.54,0,0,1,5-.21Z"/></g></mask><linearGradient id="Dégradé_sans_nom_4" x1="296.08" y1="285.6" x2="427.74" y2="285.6" gradientTransform="matrix(1, 0, 0, -1, 0, 475.99)" gradientUnits="userSpaceOnUse"><stop offset="0" stop-color="#009b5b"/><stop offset="1" stop-color="#096a42"/></linearGradient><linearGradient id="Dégradé_sans_nom_7" x1="204.94" y1="130.08" x2="284.4" y2="203.39" gradientTransform="matrix(1, 0, 0, -1, 0, 475.99)" gradientUnits="userSpaceOnUse"><stop offset="0" stop-color="aqua" stop-opacity="0"/><stop offset="1" stop-color="aqua" stop-opacity="0.68"/></linearGradient><linearGradient id="Dégradé_sans_nom_8" x1="88.57" y1="77" x2="168.03" y2="150.31" xlink:href="#Dégradé_sans_nom_7"/><linearGradient id="Dégradé_sans_nom_9" x1="179.07" y1="90.97" x2="258.52" y2="164.27" xlink:href="#Dégradé_sans_nom_7"/><linearGradient id="Dégradé_sans_nom_10" x1="135.5" y1="32.87" x2="214.95" y2="106.18" xlink:href="#Dégradé_sans_nom_7"/><linearGradient id="Dégradé_sans_nom_11" x1="174.94" y1="133.08" x2="254.4" y2="206.39" xlink:href="#Dégradé_sans_nom_7"/><linearGradient id="Dégradé_sans_nom_12" x1="260.18" y1="119.21" x2="339.64" y2="192.52" xlink:href="#Dégradé_sans_nom_7"/><linearGradient id="Dégradé_sans_nom_82" x1="2" y1="162.57" x2="224.28" y2="162.57" gradientTransform="matrix(1, 0, 0, -1, 0, 475.99)" gradientUnits="userSpaceOnUse"><stop offset="0" stop-color="#84c1cf" stop-opacity="0"/><stop offset="1" stop-color="#84c1cf" stop-opacity="0.66"/></linearGradient><linearGradient id="Dégradé_sans_nom_93" x1="0.88" y1="116.21" x2="223.16" y2="116.21" gradientTransform="matrix(1, 0, 0, -1, 0, 475.99)" gradientUnits="userSpaceOnUse"><stop offset="0" stop-color="#27a6ff" stop-opacity="0"/><stop offset="1" stop-color="#2bf9e4" stop-opacity="0.66"/></linearGradient><linearGradient id="Dégradé_sans_nom_95" x1="292.38" y1="242.89" x2="181.32" y2="50.53" gradientTransform="matrix(1, 0, 0, -1, 0, 475.99)" gradientUnits="userSpaceOnUse"><stop offset="0" stop-color="#27a6ff" stop-opacity="0"/><stop offset="1" stop-color="#fdffff" stop-opacity="0.66"/></linearGradient><linearGradient id="Dégradé_sans_nom_128" x1="87.13" y1="364.4" x2="105.7" y2="364.4" gradientUnits="userSpaceOnUse"><stop offset="0.01" stop-color="#eaecf8"/><stop offset="1" stop-color="#d2d7ee" stop-opacity="0.7"/></linearGradient><linearGradient id="Dégradé_sans_nom_100" x1="86.63" y1="364.4" x2="106.2" y2="364.4" gradientUnits="userSpaceOnUse"><stop offset="0" stop-color="#fff"/><stop offset="1" stop-color="#fdffff" stop-opacity="0.8"/></linearGradient><linearGradient id="Dégradé_sans_nom_18" x1="37.33" y1="157.58" x2="78.67" y2="157.58" gradientTransform="matrix(1, 0, 0, -1, 0, 475.99)" gradientUnits="userSpaceOnUse"><stop offset="0" stop-color="#9ccff7"/><stop offset="1" stop-color="#2e7feb"/></linearGradient><linearGradient id="Violet" x1="37.16" y1="318.59" x2="78.41" y2="318.59" gradientUnits="userSpaceOnUse"><stop offset="0.01" stop-color="#eaecf8"/><stop offset="0.45" stop-color="#d2d7ee"/><stop offset="1" stop-color="#b5bde1"/></linearGradient><linearGradient id="Dégradé_sans_nom_69" x1="12.21" y1="133.64" x2="77.45" y2="133.64" gradientTransform="matrix(1, 0, 0, -1, 0, 475.99)" gradientUnits="userSpaceOnUse"><stop offset="0.01" stop-color="#fdffff"/><stop offset="0.14" stop-color="#fdffff"/><stop offset="0.45" stop-color="#d2d7ee"/><stop offset="1" stop-color="#b5bde1"/></linearGradient><linearGradient id="Dégradé_sans_nom_91" x1="132.01" y1="108.45" x2="169.51" y2="31.17" gradientTransform="matrix(1, 0, 0, -1, 0, 475.99)" gradientUnits="userSpaceOnUse"><stop offset="0.01" stop-color="#eaecf8"/><stop offset="1" stop-color="#d2d7ee"/></linearGradient><linearGradient id="Dégradé_sans_nom_25" x1="244.56" y1="15.41" x2="212.09" y2="15.41" gradientTransform="matrix(1, 0, 0, -1, 0, 475.99)" gradientUnits="userSpaceOnUse"><stop offset="0" stop-color="#3985bf"/><stop offset="1" stop-color="#1567d4"/></linearGradient><linearGradient id="Dégradé_sans_nom_125" x1="224.23" y1="13.24" x2="242.72" y2="29.19" gradientTransform="matrix(1, 0, 0, -1, 0, 475.99)" gradientUnits="userSpaceOnUse"><stop offset="0" stop-color="#d2d7ee"/><stop offset="0.99" stop-color="#eaecf8"/></linearGradient><linearGradient id="Dégradé_sans_nom_121" x1="193.04" y1="46.16" x2="264.15" y2="46.16" xlink:href="#Dégradé_sans_nom_91"/><linearGradient id="Dégradé_sans_nom_44" x1="575" y1="395.28" x2="639.82" y2="395.28" xlink:href="#Dégradé_sans_nom_46"/><mask id="mask-2" x="589.29" y="73.03" width="36.23" height="21.52" maskUnits="userSpaceOnUse"><g id="mask1"><path class="cls-2" d="M625.52,82.7l-15.38,8.87a5.51,5.51,0,0,1-5,.21l-15.88-9.16,15.38-8.88a5.56,5.56,0,0,1,5-.21Z"/></g></mask><clipPath id="clip-path"><path class="cls-3" d="M352.73,153.13c4.67-2.8,12.39-2.74,17.15.13l54.22,32.79c4.77,2.88,4.83,7.52.16,10.33l-53.2,32c-4.67,2.8-12.38,2.74-17.14-.14l-54.23-32.78c-4.76-2.88-4.83-7.53-.16-10.33Z"/></clipPath></defs><title>GRAVITEE_TTDONNEES</title><path class="cls-4" d="M676.66,127.9l-41.35,24.33a9.36,9.36,0,0,1-9.43,0L572,121a7.64,7.64,0,0,0-7.48-.08L540.5,136"/><path class="cls-5" d="M687.84,139.71v-13.1H623v13.15a2.41,2.41,0,0,0,1.39,2l27.39,15.81c2.06,1.2,5.67,1,8.06-.33l26-15a3.47,3.47,0,0,0,2-2.42h0Z"/><path class="cls-6" d="M687.84,126.81a3.49,3.49,0,0,1-2,2.46l-26,15c-2.39,1.37-6,1.52-8.06.33l-27.39-15.81a2.5,2.5,0,0,1-1.39-1.88v-.23a.28.28,0,0,1,0-.09,3.44,3.44,0,0,1,2-2.45l7.67-4.43,1.71-1,16.64-9.6c2.38-1.38,6-1.53,8-.33l17.48,10.08,1.82,1.06,8.09,4.67A2.32,2.32,0,0,1,687.84,126.81Z"/><path class="cls-5" d="M674.25,128.29l-.7.41-15.38,8.87a5.53,5.53,0,0,1-5,.21l-15.87-9.16-1.06-.61c-1.28-.74-1.12-2,.35-2.88l16.08-9.28a5.56,5.56,0,0,1,5-.21l16.93,9.78C675.88,126.15,675.72,127.44,674.25,128.29Z"/><g class="cls-7"><path class="cls-8" d="M673.52,128.7l-15.38,8.87a5.51,5.51,0,0,1-5,.21l-15.88-9.16,15.38-8.88a5.56,5.56,0,0,1,5-.21Z"/><path class="cls-9" d="M659.16,126.41a3.71,3.71,0,1,0,4.84,2A3.71,3.71,0,0,0,659.16,126.41Z"/><path class="cls-9" d="M654.16,133.41a3.71,3.71,0,1,0,4.84,2A3.71,3.71,0,0,0,654.16,133.41Z"/><path class="cls-9" d="M645.16,129.41a3.71,3.71,0,1,0,4.84,2A3.71,3.71,0,0,0,645.16,129.41Z"/><path class="cls-9" d="M666.16,128.41a3.71,3.71,0,1,0,4.84,2A3.71,3.71,0,0,0,666.16,128.41Z"/></g><path class="cls-10" d="M345.67,330.14l-114.31-66c-8.62-5-7.54-13.67,2.42-19.42l108.57-62.68c9.95-5.75,25-6.37,33.62-1.39l114.31,66c8.61,5,7.53,13.67-2.42,19.42L379.29,328.75C369.34,334.49,354.29,335.12,345.67,330.14Z"/><path class="cls-11" d="M341,353.09,191.63,266.84c-11.27-6.51-9.85-17.87,3.15-25.38l141.9-81.92c13-7.51,32.68-8.33,43.94-1.82L530,244c11.26,6.51,9.85,17.86-3.16,25.37L385,351.27C372,358.77,352.29,359.59,341,353.09Z"/><path class="cls-12" d="M336,378.24,148.4,270c-14.14-8.16-12.37-22.43,4-31.85L330.51,135.24c16.33-9.42,41-10.45,55.17-2.28L573.24,241.25c14.15,8.16,12.37,22.43-4,31.85L391.13,376C374.81,385.38,350.11,386.41,336,378.24Z"/><path class="cls-13" d="M428,259c-.16,1.76-1.51,3.56-4,5l-52.84,30.51c-4.84,2.79-12.17,3.1-16.36.68L299.13,263a5,5,0,0,1-2.81-3.82v-.46a1.08,1.08,0,0,1,0-.18c.16-1.75,1.51-3.56,4-5l15.57-9,3.48-2,33.79-19.52c4.84-2.79,12.17-3.1,16.36-.67L405,242.88l3.71,2.14,16.43,9.49C427.19,255.7,428.1,257.31,428,259Z"/><path class="cls-4" d="M592.74,103.37,428,206.15"/><path class="cls-5" d="M427.72,259a4.51,4.51,0,0,0,0-.52V190.74H296.08v68.39c0,1.53.93,3,2.82,4.09l55.63,32.12c4.2,2.42,11.52,2.12,16.36-.68l52.84-30.51c2.45-1.41,3.79-3.19,4-4.92h0V259Z"/><path class="cls-14" d="M427.72,190.59c-.15,1.75-1.5,3.56-4,5L370.89,226.1c-4.84,2.79-12.17,3.1-16.36.68L298.9,194.66a5,5,0,0,1-2.82-3.82v-.46a.55.55,0,0,1,0-.18c.15-1.76,1.5-3.56,4-5l15.57-9,3.47-2,33.79-19.51c4.85-2.8,12.17-3.1,16.36-.68l35.5,20.49,3.71,2.14,16.43,9.48C427,187.32,427.87,188.93,427.72,190.59Z"/><path class="cls-4" d="M530.66,141.85l-19.26,12L496,163.32"/><path class="cls-9" d="M529.16,138.41a3.71,3.71,0,1,0,4.84,2A3.71,3.71,0,0,0,529.16,138.41Z"/><path class="cls-15" d="M517.12,145.86a3.71,3.71,0,1,0,4.84,2A3.71,3.71,0,0,0,517.12,145.86Z"/><path class="cls-16" d="M506,152.72a3.71,3.71,0,1,0,4.84,2A3.71,3.71,0,0,0,506,152.72Z"/><path class="cls-17" d="M495,159.65a3.71,3.71,0,1,0,4.84,2A3.72,3.72,0,0,0,495,159.65Z"/><path class="cls-18" d="M197.69,336.4l94-54.29"/><path class="cls-19" d="M81.32,389.48l94-54.29"/><path class="cls-20" d="M171.82,375.52l93.95-54.29"/><path class="cls-21" d="M128.25,433.61l93.95-54.29"/><path class="cls-22" d="M167.69,333.4l94-54.29"/><path class="cls-23" d="M252.93,347.27l94-54.29"/><path class="cls-24" d="M268.48,410.57,141.07,335.71a17.13,17.13,0,0,0-16.73-.35L90.82,353.24"/><path class="cls-25" d="M207.93,392.73l56.68,32.38a8.37,8.37,0,0,1,.11,14.48"/><path class="cls-26" d="M3.12,358.68,59.69,326c6.73-3.88,16.31-5.62,25.63-4.64l23.74,2.5c9.32,1,18.9-.76,25.62-4.64l88.48-51.08"/><path class="cls-27" d="M2,405.05l56.58-32.67c6.72-3.88,16.3-5.61,25.62-4.63l23.74,2.49c9.32,1,18.9-.75,25.63-4.63L222,314.52"/><path class="cls-28" d="M331,256.69l-56.53,32.63c-6.72,3.88-13,11.31-16.82,19.86l-9.7,21.8c-3.81,8.55-10.09,16-16.82,19.85l-88.41,51.05"/><g class="cls-29"><path class="cls-30" d="M103.44,389,90.9,381a5.64,5.64,0,0,1-2.37-4.51L87.2,341.13c0-2,2.39-2.44,3.7-1.69l13.84,8a5.64,5.64,0,0,1,2.37,4.51v34.46A2.57,2.57,0,0,1,103.44,389Z"/><path class="cls-31" d="M103.33,389l-13.84-8a5.66,5.66,0,0,1-2.37-4.52V341.62c0-1.74,1.06-2.55,2.37-1.79l13.84,8a5.67,5.67,0,0,1,2.37,4.52v34.85C105.7,388.93,104.64,389.73,103.33,389Z"/><path class="cls-32" d="M88.46,374.06V343.27c0-.62.38-.9.84-.64l14.22,8.22a2,2,0,0,1,.84,1.6v30.79c0,.62-.38.9-.84.63L89.3,375.66A2,2,0,0,1,88.46,374.06Z"/><path class="cls-32" d="M98.15,346.76l-3.48-2a.47.47,0,0,1-.19-.38c0-.15.08-.21.19-.15l3.48,2a.47.47,0,0,1,.2.38C98.35,346.75,98.26,346.82,98.15,346.76Z"/><path class="cls-33" d="M97.37,383.83c.52-.3.51-1.28,0-2.17s-1.37-1.38-1.89-1.08-.51,1.28,0,2.18S96.85,384.13,97.37,383.83Z"/></g><g class="cls-34"><path class="cls-35" d="M78.67,314.82l-.09,31c0,.9-.64,1.26-1.43.81L38.76,324.45A3.14,3.14,0,0,1,37.33,322V291c0-.91.64-1.27,1.43-.82l38.39,22.17A3.25,3.25,0,0,1,78.67,314.82Z"/><path class="cls-36" d="M12.61,337.15l23.14-11.81a2.91,2.91,0,0,1,2.64.12L75.6,346.94h1.84v1.5a.75.75,0,0,1-.44.72L53.91,362.49a3,3,0,0,1-2.65-.12L12.87,340.2C12.08,339.74,11.67,337.62,12.61,337.15Z"/><path class="cls-37" d="M78.41,315v31c0,.91-.64,1.27-1.42.81l-38.4-22.17a3.12,3.12,0,0,1-1.43-2.46v-31c0-.9.64-1.27,1.43-.81L77,312.55A3.16,3.16,0,0,1,78.41,315Z"/><path class="cls-32" d="M77.12,344.4v-30a.62.62,0,0,0-.29-.49l-38.08-22a.18.18,0,0,0-.29.17v30a.62.62,0,0,0,.29.49l38.08,22C77,344.65,77.12,344.58,77.12,344.4Z"/><path class="cls-38" d="M77,347.59,53.91,360.92a2.94,2.94,0,0,1-2.64-.11l-38.4-22.18c-.79-.45-.88-1.13-.21-1.52l23.09-13.33a2.93,2.93,0,0,1,2.65.12l38.39,22.17C77.58,346.52,77.67,347.2,77,347.59Z"/><path class="cls-32" d="M28.05,344.73,40.71,352a1.29,1.29,0,0,0,1.16-.05l5.82-3.35c.34-.2.38-.5.08-.68l-12.66-7.3a1.31,1.31,0,0,0-1.17,0l-5.81,3.36C27.79,344.26,27.75,344.56,28.05,344.73Z"/><path class="cls-33" d="M27.22,346.92h.24c.24,0,.5.1.49.22l8.93,5.16c.5.16.64.37.6.54a.88.88,0,0,1-.23,0,1.78,1.78,0,0,1-.71-.22l-8.93-5.15C27.33,347.3,27.19,347.09,27.22,346.92Z"/><path class="cls-32" d="M61,353.57l-1.84-1.07c-.11-.06-.11-.16,0-.22l.56-.32a.44.44,0,0,1,.39,0L61.93,353a.12.12,0,0,1,0,.22l-.56.33A.48.48,0,0,1,61,353.57Zm2.22-1.67-4.53-2.63c-.11-.06-.11-.16,0-.22l1.68-1a.44.44,0,0,1,.39,0l4.53,2.63c.11.06.11.16,0,.22l-1.68,1A.44.44,0,0,1,63.2,351.9Zm2.58-1.49-3.28-1.89a.12.12,0,0,1,0-.23l1.68-1a.41.41,0,0,1,.39,0l3.29,1.89c.11.07.11.17,0,.23l-1.68,1A.42.42,0,0,1,65.78,350.41Zm2.59-1.48-1.7-1a.12.12,0,0,1,0-.23l1.69-1a.44.44,0,0,1,.39,0l1.7,1c.11.06.11.16,0,.22l-1.69,1A.44.44,0,0,1,68.37,348.93Zm-2.56-1.48-1.71-1c-.11-.06-.11-.17,0-.22l1.68-1a.41.41,0,0,1,.39,0l1.7,1a.12.12,0,0,1,0,.23l-1.69,1A.46.46,0,0,1,65.81,347.45ZM63.24,346l-1.7-1c-.11-.06-.11-.16,0-.22l1.68-1a.42.42,0,0,1,.38,0l1.7,1c.11.06.11.17,0,.22l-1.68,1A.41.41,0,0,1,63.24,346Zm-2.56-1.47-1.69-1c-.11-.06-.11-.16,0-.22l1.68-1a.44.44,0,0,1,.39,0l1.7,1c.11.07.11.17,0,.23l-1.67,1A.47.47,0,0,1,60.68,344.5ZM58.13,343l-1.69-1c-.11-.06-.11-.16,0-.22l1.68-1a.42.42,0,0,1,.38,0l1.7,1c.11.06.11.16,0,.22l-1.67,1A.39.39,0,0,1,58.13,343Zm-2.55-1.46-1.69-1c-.11-.06-.11-.16,0-.22l1.67-1a.37.37,0,0,1,.38,0l1.69,1c.11.06.11.16,0,.22l-1.67,1A.44.44,0,0,1,55.58,341.56ZM53,340.09l-1.69-1c-.11-.07-.11-.16,0-.23l1.67-1a.45.45,0,0,1,.39,0l1.69,1c.1.07.11.16,0,.23l-1.67,1A.42.42,0,0,1,53,340.09Zm-2.55-1.47-1.68-1c-.11-.06-.11-.16,0-.22l1.67-1a.44.44,0,0,1,.39,0l1.68,1c.11.06.11.16,0,.22l-1.67,1A.41.41,0,0,1,50.49,338.62ZM48,337.16l-1.69-1a.12.12,0,0,1,0-.22l1.66-1a.39.39,0,0,1,.39,0L50,336c.11.06.11.16,0,.22l-1.67,1A.42.42,0,0,1,48,337.16Zm-2.15-1.46a.44.44,0,0,1-.39,0l-1.67-1c-.11-.06-.11-.16,0-.22l1.66-1a.39.39,0,0,1,.39,0l1.68,1c.11.07.11.17,0,.23Zm-2.53-1.46a.42.42,0,0,1-.38,0l-1.68-1a.13.13,0,0,1,0-.23l1.66-1a.42.42,0,0,1,.38,0l1.68,1c.11.06.11.16,0,.22Zm-2.52-1.45a.44.44,0,0,1-.39,0l-1.67-1c-.11-.06-.11-.16,0-.22l1.65-1a.42.42,0,0,1,.38,0l1.68,1c.11.06.11.16,0,.22Zm-2.52-1.46a.44.44,0,0,1-.39,0l-1.67-1a.12.12,0,0,1,0-.22l1.65-1a.42.42,0,0,1,.38,0l1.67,1c.11.06.11.16,0,.22Zm-2.52-1.45a.42.42,0,0,1-.38,0l-2.59-1.49c-.11-.06-.11-.16,0-.22l1.65-1a.42.42,0,0,1,.38,0l2.59,1.49a.12.12,0,0,1,0,.22Zm35.2,17.58-1.71-1c-.11-.07-.11-.17,0-.23l.9-.52a.41.41,0,0,1,.39,0l1.71,1a.12.12,0,0,1,0,.23l-.9.51A.45.45,0,0,1,70.92,347.46ZM68.35,346l-1.7-1c-.11-.06-.11-.17,0-.22l.9-.52a.44.44,0,0,1,.39,0l1.7,1c.11.06.11.16,0,.22l-.9.52A.48.48,0,0,1,68.35,346Zm-2.56-1.48-1.7-1c-.11-.06-.11-.16,0-.22l.89-.51a.44.44,0,0,1,.39,0l1.7,1c.11.06.11.17,0,.22l-.9.52A.48.48,0,0,1,65.79,344.5ZM63.23,343l-1.69-1c-.11-.06-.11-.16,0-.22l.9-.52a.44.44,0,0,1,.39,0l1.7,1c.11.07.11.16,0,.23l-.9.51A.45.45,0,0,1,63.23,343Zm-2.55-1.48-1.69-1c-.11-.06-.11-.16,0-.22l.9-.52a.42.42,0,0,1,.38,0l1.7,1c.11.06.11.16,0,.22l-.89.51A.41.41,0,0,1,60.68,341.55Zm-2.55-1.46-1.69-1c-.11-.06-.11-.16,0-.22l.89-.51a.37.37,0,0,1,.38,0l1.7,1c.1.06.11.16,0,.22l-.89.52A.44.44,0,0,1,58.13,340.09Zm-2.55-1.47-1.69-1c-.1-.06-.11-.16,0-.22l.89-.51a.42.42,0,0,1,.38,0l1.69,1c.11.07.11.16,0,.23l-.89.51A.44.44,0,0,1,55.58,338.62ZM53,337.15l-1.68-1c-.11-.06-.11-.16,0-.22l.89-.52a.45.45,0,0,1,.39,0l1.68,1c.11.06.11.16,0,.22l-.89.51A.45.45,0,0,1,53,337.15Zm-2.53-1.46-1.69-1a.12.12,0,0,1,0-.22l.89-.51a.37.37,0,0,1,.38,0l1.68,1c.11.07.11.17,0,.23l-.89.51A.42.42,0,0,1,50.51,335.69Zm-2.15-1.46a.45.45,0,0,1-.39,0l-1.68-1a.12.12,0,0,1,0-.22l.88-.52a.42.42,0,0,1,.38,0l1.69,1c.1.07.11.16,0,.23Zm-2.53-1.46a.42.42,0,0,1-.38,0l-1.68-1a.12.12,0,0,1,0-.22l.88-.51a.42.42,0,0,1,.38,0l1.68,1c.11.06.11.16,0,.22Zm-2.52-1.45a.44.44,0,0,1-.39,0l-1.67-1c-.11-.06-.11-.16,0-.22l.87-.51a.39.39,0,0,1,.39,0l1.67,1c.11.06.11.16,0,.22Zm-2.52-1.46a.44.44,0,0,1-.39,0l-1.67-1c-.11-.06-.11-.16,0-.22l.87-.51a.37.37,0,0,1,.38,0l1.68,1a.12.12,0,0,1,0,.22Zm-2.52-1.45a.42.42,0,0,1-.38,0l-2.59-1.49c-.11-.06-.11-.16,0-.22l.87-.51a.37.37,0,0,1,.38,0l2.59,1.49c.11.06.11.16,0,.22Zm-2.48,2.33a.12.12,0,0,1,0,.22l-1.65,1a.44.44,0,0,1-.39,0l-3.54-2.05c-.11-.06-.11-.16,0-.22l1.65-1a.42.42,0,0,1,.38,0ZM34.53,333c.1.07.1.17,0,.23l-1.65,1a.45.45,0,0,1-.39,0l-4.82-2.79a.12.12,0,0,1,0-.22l1.65-1a.37.37,0,0,1,.38,0Zm-5.68-.36a.12.12,0,0,1,0,.22l-1.65,1a.42.42,0,0,1-.38,0l-1.65-1c-.11-.06-.11-.16,0-.22l1.65-1a.42.42,0,0,1,.38,0Zm.46.49a.42.42,0,0,1,.38,0l1.66,1c.11.06.11.16,0,.22l-1.64,1a.45.45,0,0,1-.39,0l-1.66-1c-.1-.07-.1-.17,0-.23Zm2.5,1.45a.42.42,0,0,1,.38,0l2.15,1.24c.11.06.11.16,0,.22l-1.65,1a.42.42,0,0,1-.38,0l-2.14-1.24c-.11-.07-.11-.16,0-.23Zm4.46-1.17-1.67-1c-.11-.06-.11-.16,0-.22l1.66-1a.42.42,0,0,1,.38,0l1.67,1c.11.06.11.16,0,.22l-1.65,1A.37.37,0,0,1,36.27,333.36Zm-2.93,1,1.65-1a.42.42,0,0,1,.38,0l1.67,1c.11.06.11.16,0,.22l-1.65,1a.42.42,0,0,1-.38,0l-1.67-1C33.23,334.56,33.23,334.46,33.34,334.4Zm1.46,1.86a.42.42,0,0,1,.38,0l2.44,1.41c.11.06.11.16,0,.22l-1.66,1a.42.42,0,0,1-.38,0l-2.44-1.41a.12.12,0,0,1,0-.22Zm6.49-2.13a.42.42,0,0,1,.38,0l1.68,1c.1.07.1.17,0,.23l-1.66,1a.42.42,0,0,1-.38,0l-1.68-1a.12.12,0,0,1,0-.22Zm-2.5.69-1.68-1a.12.12,0,0,1,0-.22l1.65-1a.45.45,0,0,1,.39,0l1.67,1c.11.06.11.16,0,.22l-1.66,1A.42.42,0,0,1,38.79,334.82Zm.77,1.26-1.66,1a.37.37,0,0,1-.38,0l-1.67-1c-.11-.06-.11-.16,0-.22l1.65-1a.42.42,0,0,1,.38,0l1.68,1C39.67,335.92,39.67,336,39.56,336.08Zm-1.19,1.23,1.65-1a.44.44,0,0,1,.39,0l1.67,1c.11.06.11.16,0,.22l-1.66,1a.42.42,0,0,1-.38,0l-1.68-1C38.26,337.47,38.26,337.37,38.37,337.31Zm-.28.85a.42.42,0,0,1,.38,0l10.75,6.22c.11.06.11.16,0,.22l-1.67,1a.37.37,0,0,1-.38,0l-10.75-6.23a.12.12,0,0,1,0-.22ZM51.8,340l1.69,1c.11.06.11.16,0,.22l-1.66,1a.44.44,0,0,1-.39,0l-1.69-1c-.1-.06-.11-.16,0-.22l1.67-1A.42.42,0,0,1,51.8,340Zm-2.12,2-1.66,1a.44.44,0,0,1-.39,0l-1.68-1c-.11-.06-.11-.16,0-.22l1.67-1a.42.42,0,0,1,.38,0l1.69,1C49.79,341.77,49.79,341.87,49.68,341.93Zm-.42-3.42,1.69,1c.1.06.11.16,0,.22l-1.66,1a.44.44,0,0,1-.39,0l-1.68-1c-.11-.06-.11-.16,0-.22l1.67-1A.39.39,0,0,1,49.26,338.51Zm-2.11,2-1.67,1a.42.42,0,0,1-.38,0l-1.68-1c-.11-.06-.11-.16,0-.22l1.67-1a.42.42,0,0,1,.38,0l1.69,1A.12.12,0,0,1,47.15,340.47ZM46.34,337a.44.44,0,0,1,.39,0l1.68,1c.11.06.11.16,0,.23l-1.66.95a.37.37,0,0,1-.38,0l-1.68-1c-.11-.07-.11-.17,0-.23Zm-2.51.7-1.68-1a.12.12,0,0,1,0-.22l1.66-1a.42.42,0,0,1,.38,0l1.68,1c.11.06.11.16,0,.22l-1.67,1A.42.42,0,0,1,43.83,337.74Zm.78,1.26L43,340a.42.42,0,0,1-.38,0l-1.67-1c-.11-.06-.11-.16,0-.22l1.66-1a.42.42,0,0,1,.38,0l1.68,1C44.72,338.84,44.72,338.94,44.61,339Zm3.87,4.16,1.67-1a.42.42,0,0,1,.38,0l1.69,1c.1.06.11.16,0,.22l-1.67,1a.42.42,0,0,1-.38,0l-1.69-1C48.37,343.32,48.37,343.22,48.48,343.16Zm1.6,1.72,2.42,1.4c.11.07.11.16,0,.23l-1.67,1a.41.41,0,0,1-.39,0L48,346.06c-.11-.06-.11-.16,0-.22l1.66-1A.45.45,0,0,1,50.08,344.88Zm6.81-2,1.69,1c.11.07.11.17,0,.23l-1.68,1a.42.42,0,0,1-.38,0l-1.69-1c-.11-.06-.11-.16,0-.22l1.67-1A.48.48,0,0,1,56.89,342.91Zm-4.6-.29c-.11-.06-.11-.16,0-.22l1.67-1a.42.42,0,0,1,.38,0l1.69,1a.12.12,0,0,1,0,.23l-1.67,1a.41.41,0,0,1-.39,0Zm2.48,2.25-1.67,1a.45.45,0,0,1-.39,0l-1.69-1c-.1-.06-.11-.16,0-.22l1.67-1a.42.42,0,0,1,.38,0l1.69,1C54.87,344.71,54.87,344.81,54.77,344.87Zm.46.27a.45.45,0,0,1,.39,0l1.69,1c.11.07.11.16,0,.23l-1.67.95a.37.37,0,0,1-.38,0l-1.7-1c-.1-.06-.11-.16,0-.22Zm-1.87,1.64,1.82,1.06c.11.06.11.16,0,.22l-1.68,1a.42.42,0,0,1-.38,0L51.3,348c-.1-.06-.11-.16,0-.22l1.67-1A.45.45,0,0,1,53.36,346.78Zm4-1.22c-.11-.06-.11-.16,0-.22l1.67-1a.45.45,0,0,1,.39,0l1.7,1c.11.06.11.17,0,.22l-1.67,1a.41.41,0,0,1-.39,0Zm2.55,1.26,1.67-1a.41.41,0,0,1,.39,0l1.7,1c.11.06.11.16,0,.22L62,348a.42.42,0,0,1-.38,0l-1.7-1C59.83,347,59.83,346.87,59.94,346.82Zm-2.13,2-1.7-1c-.1-.06-.11-.16,0-.22l1.67-1a.45.45,0,0,1,.39,0l1.69,1c.11.06.11.17,0,.22l-1.68,1A.46.46,0,0,1,57.81,348.78Zm-2.9.18L56.74,350c.11.06.11.16,0,.22l-.56.32a.42.42,0,0,1-.38,0L54,349.5c-.11-.06-.11-.16,0-.22l.55-.32A.44.44,0,0,1,54.91,349Zm3.78.84,1.83,1.06c.11.06.11.17,0,.22l-.49.28a.42.42,0,0,1-.38,0l-1.84-1.06c-.11-.07-.11-.17,0-.23l.48-.27A.45.45,0,0,1,58.69,349.8Zm-1.21.69,1.83,1.06c.11.07.11.17,0,.23l-.51.29a.39.39,0,0,1-.39,0L56.57,351c-.1-.06-.11-.17,0-.22l.52-.3A.44.44,0,0,1,57.48,350.49Z"/></g><path class="cls-39" d="M142.4,378.22l2.34,1.35a20.21,20.21,0,0,0,20.17,0l156.26-89.79"/><g class="cls-40"><path class="cls-30" d="M165.93,442.64l-31.45-19.36a6.56,6.56,0,0,1-2.74-5.24l-.15-48.85c0-3,3.07-3.12,4.59-2.25l31.19,18.27c1.52.87,2.42,3.22,2.42,5.24v48.62C169.78,442.6,168.46,444,165.93,442.64Z"/><path class="cls-41" d="M166,442.71l-31.63-18.26a6.57,6.57,0,0,1-2.74-5.24v-50c0-2,1.23-3,2.74-2.07L166,385.41a6.54,6.54,0,0,1,2.74,5.24v50C168.71,442.66,167.49,443.59,166,442.71Z"/><path class="cls-32" d="M167.68,389.63l-34-19.62c-.19-.1-.34,0-.34.26v46.86a.78.78,0,0,0,.34.64l34,19.62c.18.1.33,0,.33-.26V390.27A.81.81,0,0,0,167.68,389.63Z"/><path class="cls-42" d="M147.69,377l4.95,2.86c.12.07.22,0,.22-.17a.51.51,0,0,0-.22-.41l-4.95-2.86c-.12-.06-.22,0-.22.17A.51.51,0,0,0,147.69,377Z"/><path class="cls-42" d="M150.16,428.84c-.79-.45-1.43-.09-1.43.82a3.18,3.18,0,0,0,1.43,2.48c.79.46,1.43.09,1.43-.82A3.18,3.18,0,0,0,150.16,428.84Z"/></g><g class="cls-43"><path class="cls-44" d="M228.42,469.48l-15.53-9.11c-1.17-.69-1-1.8.26-2.37l15.49-6.81,15.92,9.34-12,8.83A4.2,4.2,0,0,1,228.42,469.48Z"/><path class="cls-45" d="M228.42,469.05,212.89,460c-1.17-.69-1-1.8.26-2.38l15.49-6.8,15.92,9.33-12,8.84A4.17,4.17,0,0,1,228.42,469.05Z"/><path class="cls-46" d="M263,418.24l-67-38.67a1.32,1.32,0,0,0-1.38-.1l-1,.29a9.91,9.91,0,0,1,.46.89,5.21,5.21,0,0,0,1.27.82,6.47,6.47,0,0,1,.5-.44v50.35a4.93,4.93,0,0,0,2.06,3.94l64.48,38.3.53.34c.08.37.18.73.26,1.1.06.21.11.43.17.65,0,0,0,.15,0,.16a1.11,1.11,0,0,0,.16-.07c.4-.18,1.33-.38,1.43-1.19s.06-52.54.06-52.43A4.94,4.94,0,0,0,263,418.24Z"/><path class="cls-47" d="M262.09,422.61l-67-38.67c-1.14-.66-2.06,0-2.06,1.55v47.63a4.93,4.93,0,0,0,2.06,3.94l67,38.67c1.13.66,2.06,0,2.06-1.56V426.55A4.93,4.93,0,0,0,262.09,422.61Z"/><path class="cls-33" d="M264.15,422.06v45.17L193,426.18V381c0-1.26.92-1.74,2.06-1.08l67,38.67A4.46,4.46,0,0,1,264.15,422.06Z"/></g><path class="cls-4" d="M473.66,177.2l-19.27,12L439,198.67"/><path class="cls-17" d="M437.43,195.41a3.71,3.71,0,1,0,4.84,2A3.71,3.71,0,0,0,437.43,195.41Z"/><path class="cls-9" d="M472.15,173.41a3.71,3.71,0,1,0,4.84,2A3.71,3.71,0,0,0,472.15,173.41Z"/><path class="cls-15" d="M460.12,181.21a3.71,3.71,0,1,0,4.84,2A3.71,3.71,0,0,0,460.12,181.21Z"/><path class="cls-16" d="M449,187.72a3.71,3.71,0,1,0,4.84,2A3.7,3.7,0,0,0,449,187.72Z"/><path class="cls-5" d="M639.81,93.71a1,1,0,0,0,0-.25V80.61H575V93.76a2.39,2.39,0,0,0,1.39,2l27.39,15.81c2.06,1.2,5.67,1,8.05-.33l26-15a3.5,3.5,0,0,0,2-2.42h0Z"/><path class="cls-48" d="M639.81,80.81a3.45,3.45,0,0,1-2,2.46l-26,15c-2.39,1.37-6,1.52-8.06.33L576.39,82.81A2.48,2.48,0,0,1,575,80.93V80.7a.28.28,0,0,1,0-.09,3.42,3.42,0,0,1,2-2.45l7.67-4.43,1.71-1L603,63.14c2.39-1.38,6-1.53,8.06-.33l17.48,10.08L630.34,74l8.09,4.67A2.29,2.29,0,0,1,639.81,80.81Z"/><path class="cls-5" d="M626.22,82.29l-.7.41-15.38,8.87a5.53,5.53,0,0,1-5,.21l-15.87-9.16L588.23,82c-1.27-.74-1.11-2,.36-2.88l16.08-9.28a5.56,5.56,0,0,1,5-.21l16.93,9.78C627.86,80.15,627.7,81.44,626.22,82.29Z"/><g class="cls-49"><path class="cls-8" d="M625.52,82.7l-15.38,8.87a5.51,5.51,0,0,1-5,.21l-15.88-9.16,15.38-8.88a5.56,5.56,0,0,1,5-.21Z"/><path class="cls-9" d="M609.16,80.41a3.71,3.71,0,1,0,4.84,2A3.71,3.71,0,0,0,609.16,80.41Z"/><path class="cls-9" d="M604.16,87.41a3.71,3.71,0,1,0,4.84,2A3.71,3.71,0,0,0,604.16,87.41Z"/><path class="cls-9" d="M595.16,83.41a3.71,3.71,0,1,0,4.84,2A3.71,3.71,0,0,0,595.16,83.41Z"/><path class="cls-9" d="M616.16,82.41a3.71,3.71,0,1,0,4.84,2A3.71,3.71,0,0,0,616.16,82.41Z"/></g><path class="cls-50" d="M352.73,153.13c4.67-2.8,12.39-2.74,17.15.13l54.22,32.79c4.77,2.88,4.83,7.52.16,10.33l-53.2,32c-4.67,2.8-12.38,2.74-17.14-.14l-54.23-32.78c-4.76-2.88-4.83-7.53-.16-10.33Z"/><g class="cls-51"><g class="cls-52"><path class="cls-53" d="M347.75,182.13a14.36,14.36,0,0,0-4.3,3.82,6.87,6.87,0,0,0,.18,8.51c6,8.06,22.11,9.44,31.12,4,7.08-4.25,7.22-11.12.52-15.66a.34.34,0,0,0-.31,0l-7,3.91h0c-.35.21-.31.56.1.75,1.66.76,5.5,2.53,5.5,2.55.33,2.13-1.06,4.31-3.59,5.82a15,15,0,0,1-6.14,1.94,17.89,17.89,0,0,1-5-.05c-10.21-1.5-12.94-8.77-6.57-12.59l.06,0a17.63,17.63,0,0,1,7.93-2.16.92.92,0,0,0,.39-.1c.17-.1.18-.27-.05-.41l-4.33-2.59c-.78-.43-1-.45-1.47-.36a21.85,21.85,0,0,0-6.95,2.63"/><path class="cls-53" d="M325.47,191.58c-3.78,2.27-5.32,4.46-4.37,6.34.74,1.44,2.89,2.58,6.27,3.35a1.56,1.56,0,0,0,.86,1.46,4.84,4.84,0,0,0,4.53.14l.07-.05a2.26,2.26,0,0,0,.71-.65l2.64.17c2.15.09,7,.08,9.42,0l-1-.51c-2.37.06-6.28,0-8.4-.05-.87,0-1.7-.09-2.5-.16a1.55,1.55,0,0,0-.85-1.51,4.81,4.81,0,0,0-4.53-.14l-.07,0a2.2,2.2,0,0,0-.74.71c-.35-.08-.69-.16-1-.26-2.48-.69-4-1.61-4.59-2.71s-.11-2.37,1.31-3.74A17,17,0,0,1,326.1,192a39.08,39.08,0,0,1,4.07-2.08c1.81-.81,3.85-1.59,6.06-2.34.08-.24.18-.47.28-.71-2.53.84-4.83,1.72-6.87,2.63a38.15,38.15,0,0,0-4.17,2.13"/><path class="cls-53" d="M379.48,180.24l.8.51c2.28-.05,2.77,0,4.81.08a45.39,45.39,0,0,1,9.71,1.32c2.47.69,4,1.61,4.58,2.72s.13,2.36-1.31,3.73a16,16,0,0,1-2.84,2.09,38.33,38.33,0,0,1-4.08,2.08,51.76,51.76,0,0,1-5.61,2.21l-.38.7a57.9,57.9,0,0,0,6.52-2.48,40,40,0,0,0,4.17-2.13c3.78-2.28,5.32-4.47,4.37-6.34-1.24-2.47-6.6-4-15.08-4.42-2.05-.1-3.37-.11-5.66-.07"/></g></g></svg>